<svg width="237" height="164" viewBox="0 0 237 164" fill="none" xmlns="http://www.w3.org/2000/svg">
<path d="M0 163.524V128.902H11.1928C14.908 128.902 17.6984 129.679 19.5638 131.233C21.445 132.786 22.3856 135.085 22.3856 138.129C22.3856 139.746 21.9309 141.18 21.0217 142.433C20.1125 143.669 18.8741 144.628 17.3065 145.31C19.1563 145.833 20.6141 146.832 21.6801 148.306C22.7618 149.764 23.3026 151.508 23.3026 153.537C23.3026 156.644 22.3072 159.086 20.3163 160.861C18.3254 162.637 15.5116 163.524 11.8747 163.524H0ZM4.51473 147.331V159.791H11.9687C14.0694 159.791 15.7232 159.244 16.9303 158.15C18.153 157.041 18.7644 155.519 18.7644 153.585C18.7644 149.416 16.5227 147.331 12.0393 147.331H4.51473ZM4.51473 143.669H11.3339C13.3091 143.669 14.8845 143.17 16.0602 142.171C17.2516 141.172 17.8473 139.817 17.8473 138.105C17.8473 136.202 17.2986 134.823 16.2013 133.967C15.104 133.095 13.4345 132.659 11.1928 132.659H4.51473V143.669Z" fill="#063579"/>
<path d="M34.0486 163.524H29.6985V127H34.0486V163.524Z" fill="#063579"/>
<path d="M39.8801 150.422C39.8801 147.902 40.3661 145.635 41.338 143.621C42.3256 141.608 43.6895 140.055 45.4295 138.961C47.1852 137.867 49.1839 137.32 51.4256 137.32C54.8901 137.32 57.6883 138.533 59.8202 140.958C61.9679 143.384 63.0417 146.61 63.0417 150.636V150.945C63.0417 153.45 62.5635 155.701 61.6073 157.699C60.6667 159.68 59.3107 161.226 57.5393 162.335C55.7836 163.445 53.7614 164 51.4727 164C48.0239 164 45.2257 162.787 43.0781 160.362C40.9461 157.936 39.8801 154.726 39.8801 150.731V150.422ZM44.2538 150.945C44.2538 153.799 44.9044 156.09 46.2055 157.817C47.5223 159.545 49.278 160.409 51.4727 160.409C53.683 160.409 55.4387 159.537 56.7399 157.794C58.041 156.034 58.6915 153.577 58.6915 150.422C58.6915 147.6 58.0253 145.318 56.6928 143.574C55.376 141.814 53.6203 140.934 51.4256 140.934C49.278 140.934 47.5458 141.798 46.229 143.526C44.9122 145.254 44.2538 147.727 44.2538 150.945Z" fill="#063579"/>
<path d="M67.3448 150.422C67.3448 147.902 67.8307 145.635 68.8027 143.621C69.7903 141.608 71.1541 140.055 72.8941 138.961C74.6499 137.867 76.6486 137.32 78.8903 137.32C82.3547 137.32 85.1529 138.533 87.2849 140.958C89.4325 143.384 90.5063 146.61 90.5063 150.636V150.945C90.5063 153.45 90.0282 155.701 89.0719 157.699C88.1314 159.68 86.7754 161.226 85.004 162.335C83.2482 163.445 81.226 164 78.9373 164C75.4885 164 72.6903 162.787 70.5427 160.362C68.4108 157.936 67.3448 154.726 67.3448 150.731V150.422ZM71.7184 150.945C71.7184 153.799 72.369 156.09 73.6701 157.817C74.9869 159.545 76.7426 160.409 78.9373 160.409C81.1476 160.409 82.9034 159.537 84.2045 157.794C85.5056 156.034 86.1562 153.577 86.1562 150.422C86.1562 147.6 85.4899 145.318 84.1575 143.574C82.8407 141.814 81.0849 140.934 78.8903 140.934C76.7426 140.934 75.0104 141.798 73.6936 143.526C72.3768 145.254 71.7184 147.727 71.7184 150.945Z" fill="#063579"/>
<path d="M94.9035 150.446C94.9035 146.499 95.8284 143.328 97.6781 140.934C99.5279 138.525 101.95 137.32 104.944 137.32C107.923 137.32 110.282 138.35 112.022 140.411V127H116.372V163.524H112.375L112.163 160.766C110.423 162.922 108.001 164 104.897 164C101.95 164 99.5436 162.779 97.6781 160.338C95.8284 157.897 94.9035 154.71 94.9035 150.779V150.446ZM99.2536 150.945C99.2536 153.862 99.8493 156.145 101.041 157.794C102.232 159.442 103.878 160.267 105.979 160.267C108.738 160.267 110.752 159.014 112.022 156.51V144.692C110.721 142.266 108.722 141.053 106.026 141.053C103.894 141.053 102.232 141.886 101.041 143.55C99.8493 145.215 99.2536 147.68 99.2536 150.945Z" fill="#063579"/>
<path d="M137.958 156.7C137.958 155.511 137.511 154.591 136.618 153.942C135.74 153.276 134.196 152.705 131.985 152.229C129.791 151.754 128.043 151.183 126.742 150.517C125.456 149.852 124.5 149.059 123.873 148.139C123.262 147.22 122.956 146.126 122.956 144.858C122.956 142.75 123.834 140.966 125.59 139.508C127.361 138.049 129.618 137.32 132.362 137.32C135.246 137.32 137.582 138.073 139.369 139.579C141.172 141.085 142.073 143.011 142.073 145.357H137.699C137.699 144.153 137.19 143.114 136.171 142.242C135.168 141.37 133.898 140.934 132.362 140.934C130.778 140.934 129.54 141.283 128.646 141.981C127.753 142.678 127.306 143.59 127.306 144.715C127.306 145.777 127.722 146.578 128.552 147.117C129.383 147.656 130.88 148.171 133.044 148.663C135.223 149.154 136.986 149.741 138.334 150.422C139.682 151.104 140.678 151.928 141.321 152.895C141.979 153.846 142.308 155.012 142.308 156.391C142.308 158.689 141.399 160.536 139.581 161.931C137.762 163.31 135.403 164 132.503 164C130.465 164 128.662 163.635 127.094 162.906C125.527 162.177 124.296 161.162 123.403 159.862C122.525 158.547 122.086 157.128 122.086 155.606H126.436C126.514 157.08 127.094 158.253 128.176 159.125C129.273 159.981 130.716 160.409 132.503 160.409C134.149 160.409 135.466 160.076 136.453 159.411C137.456 158.729 137.958 157.825 137.958 156.7Z" fill="#063579"/>
<path d="M153.877 131.566V137.796H158.627V141.196H153.877V157.152C153.877 158.182 154.089 158.959 154.512 159.482C154.935 159.989 155.656 160.243 156.675 160.243C157.177 160.243 157.867 160.148 158.745 159.958V163.524C157.6 163.841 156.487 164 155.406 164C153.462 164 151.996 163.406 151.008 162.217C150.021 161.028 149.527 159.339 149.527 157.152V141.196H144.895V137.796H149.527V131.566H153.877Z" fill="#063579"/>
<path d="M162.107 150.422C162.107 147.902 162.593 145.635 163.565 143.621C164.553 141.608 165.916 140.055 167.657 138.961C169.412 137.867 171.411 137.32 173.653 137.32C177.117 137.32 179.915 138.533 182.047 140.958C184.195 143.384 185.269 146.61 185.269 150.636V150.945C185.269 153.45 184.791 155.701 183.834 157.699C182.894 159.68 181.538 161.226 179.766 162.335C178.011 163.445 175.988 164 173.7 164C170.251 164 167.453 162.787 165.305 160.362C163.173 157.936 162.107 154.726 162.107 150.731V150.422ZM166.481 150.945C166.481 153.799 167.131 156.09 168.432 157.817C169.749 159.545 171.505 160.409 173.7 160.409C175.91 160.409 177.666 159.537 178.967 157.794C180.268 156.034 180.919 153.577 180.919 150.422C180.919 147.6 180.252 145.318 178.92 143.574C177.603 141.814 175.847 140.934 173.653 140.934C171.505 140.934 169.773 141.798 168.456 143.526C167.139 145.254 166.481 147.727 166.481 150.945Z" fill="#063579"/>
<path d="M200.929 160.409C202.481 160.409 203.837 159.934 204.997 158.983C206.157 158.031 206.8 156.843 206.925 155.416H211.04C210.962 156.89 210.46 158.293 209.535 159.625C208.61 160.956 207.372 162.018 205.82 162.811C204.284 163.604 202.654 164 200.929 164C197.465 164 194.706 162.835 192.652 160.504C190.614 158.158 189.595 154.956 189.595 150.898V150.161C189.595 147.656 190.05 145.429 190.959 143.479C191.868 141.529 193.169 140.015 194.862 138.937C196.571 137.859 198.586 137.32 200.906 137.32C203.759 137.32 206.126 138.184 208.007 139.912C209.904 141.64 210.915 143.883 211.04 146.641H206.925C206.8 144.977 206.173 143.614 205.044 142.551C203.931 141.473 202.552 140.934 200.906 140.934C198.695 140.934 196.979 141.743 195.756 143.36C194.549 144.961 193.945 147.283 193.945 150.327V151.159C193.945 154.124 194.549 156.407 195.756 158.008C196.963 159.609 198.687 160.409 200.929 160.409Z" fill="#063579"/>
<path d="M223.033 151.611L220.305 154.488V163.524H215.955V127H220.305V149.091L222.633 146.261L230.557 137.796H235.848L225.948 148.544L237 163.524H231.897L223.033 151.611Z" fill="#063579"/>
<g clip-path="url(#clip0)">
<path d="M235.08 79.932L233.128 80.8222L235.072 79.932C233.94 77.4095 232.312 75.1391 230.283 73.2554C228.331 71.4556 226.13 69.9435 223.747 68.7653C221.435 67.6229 219.059 66.6139 216.631 65.7432C214.248 64.9103 211.918 64.1476 209.64 63.4552C207.683 62.8796 205.76 62.1966 203.88 61.4093C202.563 60.8914 201.347 60.1518 200.282 59.2228C199.993 58.9683 199.766 58.6522 199.616 58.298C199.467 57.9438 199.4 57.5605 199.42 57.1769C199.383 56.5911 199.501 56.0058 199.764 55.4805C200.027 54.9553 200.425 54.5086 200.917 54.186C201.983 53.4051 203.84 52.8585 206.615 52.8663C208.317 52.8389 210.014 53.0573 211.654 53.5145C213.093 53.929 214.506 54.427 215.886 55.006C217.203 55.5838 218.441 56.107 219.593 56.6068C220.966 57.2034 222.446 57.5169 223.943 57.5282C225.291 57.5677 226.623 57.2411 227.799 56.5834C228.808 55.9569 229.667 55.1172 230.315 54.1236L236.969 43.7924L235.824 42.4961C234.098 40.7858 232.194 39.2648 230.142 37.9591C227.947 36.5591 225.616 35.3844 223.183 34.4529C220.562 33.4366 217.852 32.668 215.087 32.1571C212.156 31.619 209.18 31.3575 206.199 31.3762C201.181 31.2837 196.181 32.0172 191.403 33.5471C187.455 34.8308 183.8 36.8737 180.642 39.5599C177.912 41.9286 175.73 44.8593 174.247 48.1498L173.792 49.1571L174.364 50.1176C178.283 56.7005 180.266 64.6187 180.281 73.4819V73.5365C180.273 73.5909 180.273 73.6461 180.281 73.7005V74.2471C180.281 75.2311 180.281 76.2072 180.203 77.1833L180.148 78.2843L181.018 78.9637C182.3 79.9707 183.675 80.8544 185.125 81.6031C187.446 82.8064 189.847 83.8501 192.312 84.7267C194.663 85.5622 197.014 86.2885 199.365 86.9835C201.332 87.533 203.263 88.2006 205.149 88.9825C206.473 89.5146 207.696 90.2701 208.762 91.2159C209.064 91.5097 209.299 91.8645 209.452 92.2565C209.605 92.6484 209.672 93.0685 209.648 93.4883C209.651 94.0539 209.53 94.6134 209.295 95.1282C209.041 95.6913 208.66 96.1884 208.182 96.5806C207.506 97.1074 206.731 97.4925 205.902 97.7129C204.567 98.0638 203.19 98.2268 201.81 98.1971C199.839 98.2583 197.872 97.9944 195.987 97.4162C194.536 96.9099 193.128 96.2857 191.779 95.5498L188.142 93.4883C186.643 92.6641 184.956 92.2417 183.244 92.2623C181.522 92.2067 179.82 92.6342 178.33 93.4961C177.044 94.3095 175.97 95.4147 175.195 96.7212L168.588 107.138L169.983 108.442C171.842 110.071 173.873 111.493 176.041 112.683C178.442 114.013 180.961 115.122 183.565 115.994C186.28 116.922 189.059 117.653 191.881 118.18C194.724 118.706 197.61 118.967 200.502 118.961H200.556C205.741 119.066 210.912 118.375 215.886 116.915C220.079 115.656 223.979 113.581 227.36 110.808C230.457 108.222 232.902 104.948 234.5 101.25C236.1 97.4822 236.9 93.4251 236.851 89.3339V89.3339C236.939 86.1101 236.335 82.9046 235.08 79.932V79.932Z" fill="#06357A"/>
<path d="M117.873 10.7138C117.871 7.89301 116.755 5.18619 114.767 3.17846C112.778 1.17073 110.077 0.0233727 107.246 -0.0156054C107.178 -0.0251123 107.11 -0.0251123 107.042 -0.0156054H89.6274V27.5186H117.842L117.873 10.7138Z" fill="#06357A"/>
<path d="M165.328 45.0106C161.527 40.6805 156.714 37.3496 151.315 35.3119C145.899 33.2738 139.559 32.3211 132.325 32.3211H123.03V57.0597H129.237C135.233 57.0597 138.846 58.6215 141.189 61.0891C143.532 63.5567 145.108 67.7579 145.108 74.3018C145.108 80.0179 143.642 84.3128 140.852 87.8659C138.501 90.7552 135.139 92.3248 129.253 92.3794H117.865V32.3367H89.6509V106.888C89.655 109.602 90.7391 112.202 92.6653 114.12C94.5915 116.038 97.2026 117.116 99.9256 117.118H126.886C133.791 117.118 138.885 116.821 142.561 116.111C147.379 115.207 151.994 113.442 156.182 110.902C168.721 103.281 175.156 90.2788 175.117 73.9504V73.599C175.07 62.1824 171.896 52.4056 165.328 45.0106Z" fill="#06357A"/>
<path d="M56.4443 92.3794H45.4721C41.9695 92.4966 38.5286 91.4408 35.6989 89.3808C32.1016 86.6633 29.9934 82.1497 29.9385 74.2159C29.9385 68.9214 31.216 65.0716 33.5202 62.0886C36.2005 58.7699 39.6333 57.1378 45.4877 57.0597H51.2795V32.3211H40.7932C30.3147 32.3211 21.4272 34.8902 14.7577 40.4189C4.94536 48.423 -0.0156376 60.0896 3.70272e-05 74.0519V74.2237C3.70272e-05 82.7042 1.5675 90.2085 4.95322 96.565C7.26412 101.038 10.4591 105 14.3461 108.211C18.2331 111.422 22.7318 113.817 27.5717 115.252C32.0154 116.579 37.8385 117.11 45.4407 117.118H74.376C77.099 117.116 79.7101 116.038 81.6363 114.12C83.5625 112.202 84.6466 109.602 84.6507 106.888V32.3367H56.4364L56.4443 92.3794Z" fill="#8DC63F"/>
<path d="M84.6743 0H67.2128C64.3608 0.00411832 61.6266 1.13372 59.6084 3.14162C57.5903 5.14951 56.4526 7.87218 56.4443 10.7138V27.5186H84.6586L84.6743 0Z" fill="#8DC63F"/>
</g>
<defs>
<clipPath id="clip0">
<rect width="237" height="119" fill="white"/>
</clipPath>
</defs>
</svg>
