<?xml version="1.0" standalone="no"?><!DOCTYPE svg PUBLIC "-//W3C//DTD SVG 1.1//EN" "http://www.w3.org/Graphics/SVG/1.1/DTD/svg11.dtd"><svg xmlns="http://www.w3.org/2000/svg" version="1.1" width="1113.167" height="735.667" xmlns:xlink="http://www.w3.org/1999/xlink" xlink="http://www.w3.org/1999/xlink" style="position:relative;overflow:hidden;" viewBox="50.167 124.083 1113.167 735.667"><defs/><g><g width="56.5" height="364.333" transform="scale(1,1) translate(287.333,309.583)"><g fill="#545454" stroke="#545454" stroke-opacity="1" transform="scale(1,1) translate(0,0)"><path fill="none" stroke-width="1" stroke-dasharray="none" d="M36,0 L36,364.333 M36,182.167 L0,182.167 M36,182.167 L36,182.167 M36,0 L56.5,0 M36,364.333 L56.5,364.333"/><g><g stroke-dasharray="none"><path d="M33,361.333L39,361.333L39,367.333L33,367.333z" stroke-width="0" fill="none"/></g></g></g></g><g width="224.667" height="75.5" transform="scale(1,1) translate(343.833,636.167)"><g stroke="#CFE9F7" stroke-opacity="1" stroke-width="1" stroke-dasharray="none" width="224.667" height="75.5" transform="scale(1,1) translate(0,0)" fill="#CFE9F7" fill-opacity="1"><rect width="224.667" height="75.5"/></g><g width="219.66666666666666" height="70.5" transform="scale(1,1) translate(2.5,2.5)"><text width="219.66666666666666" height="24.999998092651367" transform="scale(1,1) translate(0,22.750000953674316)" xml:space="preserve"><tspan xml:space="preserve" text-rendering="optimizeSpeed" font-size="22.22222222222222" font-weight="bold" font-style="normal" text-decoration="none" fill="#333333" opacity="1" x="65.993" text-anchor="start" y="20.313" textLength="87.68154907226562" style="font-family: Arial, Helvetica Neue, Helvetica, sans-serif;">Celerina</tspan></text></g></g><g width="224.667" height="75.5" transform="scale(1,1) translate(343.833,271.833)"><g stroke="#ECF1D9" stroke-opacity="1" stroke-width="1" stroke-dasharray="none" width="224.667" height="75.5" transform="scale(1,1) translate(0,0)" fill="#ECF1D9" fill-opacity="1"><rect width="224.667" height="75.5"/></g><g width="219.66666666666666" height="70.5" transform="scale(1,1) translate(2.5,2.5)"><text width="219.66666666666666" height="24.999998092651367" transform="scale(1,1) translate(0,22.750000953674316)" xml:space="preserve"><tspan xml:space="preserve" text-rendering="optimizeSpeed" font-size="22.22222222222222" font-weight="bold" font-style="normal" text-decoration="none" fill="#333333" opacity="1" x="4.289" text-anchor="start" y="20.313" textLength="211.08885192871094" style="font-family: Arial, Helvetica Neue, Helvetica, sans-serif;">Footstepsinthesand</tspan></text></g></g><g width="224.667" height="74.167" transform="scale(1,1) translate(62.667,454.667)"><g stroke="#CFE9F7" stroke-opacity="1" stroke-width="1" stroke-dasharray="none" width="224.667" height="74.167" transform="scale(1,1) translate(0,0)" fill="#CFE9F7" fill-opacity="1"><rect width="224.667" height="74.167"/></g><g width="219.66666666666666" height="69.16666666666666" transform="scale(1,1) translate(2.5,2.5)"><text width="219.66666666666666" height="24.999998092651367" transform="scale(1,1) translate(0,22.083334287007645)" xml:space="preserve"><tspan xml:space="preserve" text-rendering="optimizeSpeed" font-size="22.22222222222222" font-weight="bold" font-style="normal" text-decoration="none" fill="#333333" opacity="1" x="32.681" text-anchor="start" y="20.313" textLength="154.30520629882812" style="font-family: Arial, Helvetica Neue, Helvetica, sans-serif;">A Step Too Far</tspan></text></g></g><g width="56.5" height="181.667" transform="scale(1,1) translate(568.5,218.75)"><g fill="#545454" stroke="#545454" stroke-opacity="1" transform="scale(1,1) translate(0,0)"><path fill="none" stroke-width="1" stroke-dasharray="none" d="M36,0 L36,181.667 M36,90.833 L0,90.833 M36,90.833 L36,90.833 M36,0 L56.5,0 M36,181.667 L56.5,181.667"/><g><g stroke-dasharray="none"><path d="M33,178.667L39,178.667L39,184.667L33,184.667z" stroke-width="0" fill="none"/></g></g></g></g><g width="20" height="0" transform="scale(1,1) translate(1130.833,354.667)"><g fill="#545454" stroke="#545454" stroke-opacity="1" transform="scale(1,1) translate(0,0)"><path fill="none" stroke-width="1" stroke-dasharray="none" d="M0,0"/></g></g><g width="224.667" height="75.5" transform="scale(1,1) translate(625,362.667)"><g stroke="#CFE9F7" stroke-opacity="1" stroke-width="1" stroke-dasharray="none" width="224.667" height="75.5" transform="scale(1,1) translate(0,0)" fill="#CFE9F7" fill-opacity="1"><rect width="224.667" height="75.5"/></g><g width="219.66666666666666" height="70.5" transform="scale(1,1) translate(2.5,2.5)"><text width="219.66666666666666" height="24.999998092651367" transform="scale(1,1) translate(0,22.750000953674316)" xml:space="preserve"><tspan xml:space="preserve" text-rendering="optimizeSpeed" font-size="22.22222222222222" font-weight="bold" font-style="normal" text-decoration="none" fill="#333333" opacity="1" x="62.298" text-anchor="start" y="20.313" textLength="95.0697250366211" style="font-family: Arial, Helvetica Neue, Helvetica, sans-serif;">Glatisant</tspan></text></g></g><g width="224.667" height="75.5" transform="scale(1,1) translate(625,181)"><g stroke="#ECF1D9" stroke-opacity="1" stroke-width="1" stroke-dasharray="none" width="224.667" height="75.5" transform="scale(1,1) translate(0,0)" fill="#ECF1D9" fill-opacity="1"><rect width="224.667" height="75.5"/></g><g width="219.66666666666666" height="70.5" transform="scale(1,1) translate(2.5,2.5)"><text width="219.66666666666666" height="24.999998092651367" transform="scale(1,1) translate(0,22.750000953674316)" xml:space="preserve"><tspan xml:space="preserve" text-rendering="optimizeSpeed" font-size="22.22222222222222" font-weight="bold" font-style="normal" text-decoration="none" fill="#333333" opacity="1" x="18.658" text-anchor="start" y="20.313" textLength="182.34986877441406" style="font-family: Arial, Helvetica Neue, Helvetica, sans-serif;">Giants Causeway</tspan></text></g></g><g width="56.5" height="181.667" transform="scale(1,1) translate(568.5,583.083)"><g fill="#545454" stroke="#545454" stroke-opacity="1" transform="scale(1,1) translate(0,0)"><path fill="none" stroke-width="1" stroke-dasharray="none" d="M36,0 L36,181.667 M36,90.833 L0,90.833 M36,90.833 L36,90.833 M36,0 L56.5,0 M36,181.667 L56.5,181.667"/><g><g stroke-dasharray="none"><path d="M33,178.667L39,178.667L39,184.667L33,184.667z" stroke-width="0" fill="none"/></g></g></g></g><g width="20" height="0" transform="scale(1,1) translate(1130.833,719.333)"><g fill="#545454" stroke="#545454" stroke-opacity="1" transform="scale(1,1) translate(0,0)"><path fill="none" stroke-width="1" stroke-dasharray="none" d="M0,0"/></g></g><g width="224.667" height="75.5" transform="scale(1,1) translate(625,727)"><g stroke="#CFE9F7" stroke-opacity="1" stroke-width="1" stroke-dasharray="none" width="224.667" height="75.5" transform="scale(1,1) translate(0,0)" fill="#CFE9F7" fill-opacity="1"><rect width="224.667" height="75.5"/></g><g width="219.66666666666666" height="70.5" transform="scale(1,1) translate(2.5,2.5)"><text width="219.66666666666666" height="24.999998092651367" transform="scale(1,1) translate(0,22.750000953674316)" xml:space="preserve"><tspan xml:space="preserve" text-rendering="optimizeSpeed" font-size="22.22222222222222" font-weight="bold" font-style="normal" text-decoration="none" fill="#333333" opacity="1" x="49.329" text-anchor="start" y="20.313" textLength="121.00965881347656" style="font-family: Arial, Helvetica Neue, Helvetica, sans-serif;">Chantarella</tspan></text></g></g><g width="224.667" height="74.167" transform="scale(1,1) translate(625,546)"><g stroke="#ECF1D9" stroke-opacity="1" stroke-width="1" stroke-dasharray="none" width="224.667" height="74.167" transform="scale(1,1) translate(0,0)" fill="#ECF1D9" fill-opacity="1"><rect width="224.667" height="74.167"/></g><g width="219.66666666666666" height="69.16666666666666" transform="scale(1,1) translate(2.5,2.5)"><text width="219.66666666666666" height="28.124998092651367" transform="scale(1,1) translate(0,20.520834287007645)" xml:space="preserve"><tspan xml:space="preserve" text-rendering="optimizeSpeed" font-size="22.22222222222222" font-weight="bold" font-style="normal" text-decoration="none" fill="#333333" opacity="1" x="76.361" text-anchor="start" y="21.875" textLength="66.94503784179688" style="font-family: Segoe UI, Source Sans Pro, Arial, Helvetica Neue, Helvetica, sans-serif;">Choisir</tspan></text></g></g><g width="56.5" height="90.833" transform="scale(1,1) translate(849.667,719.333)"><g fill="#545454" stroke="#545454" stroke-opacity="1" transform="scale(1,1) translate(0,0)"><path fill="none" stroke-width="1" stroke-dasharray="none" d="M36,0 L36,90.833 M36,45.417 L0,45.417 M36,45.417 L36,45.417 M36,0 L56.5,0 M36,90.833 L56.5,90.833"/><g><g stroke-dasharray="none"><path d="M33,87.833L39,87.833L39,93.833L33,93.833z" stroke-width="0" fill="none"/></g></g></g></g><g width="20" height="0" transform="scale(1,1) translate(1130.833,810.167)"><g fill="#545454" stroke="#545454" stroke-opacity="1" transform="scale(1,1) translate(0,0)"><path fill="none" stroke-width="1" stroke-dasharray="none" d="M0,0"/></g></g><g width="224.667" height="74.167" transform="scale(1,1) translate(906.167,773.083)"><g stroke="#CFE9F7" stroke-opacity="1" stroke-width="1" stroke-dasharray="none" width="224.667" height="74.167" transform="scale(1,1) translate(0,0)" fill="#CFE9F7" fill-opacity="1"><rect width="224.667" height="74.167"/></g><g width="219.66666666666666" height="69.16666666666666" transform="scale(1,1) translate(2.5,2.5)"><text width="219.66666666666666" height="24.999998092651367" transform="scale(1,1) translate(0,22.083334287007645)" xml:space="preserve"><tspan xml:space="preserve" text-rendering="optimizeSpeed" font-size="22.22222222222222" font-weight="bold" font-style="normal" text-decoration="none" fill="#333333" opacity="1" x="71.564" text-anchor="start" y="20.313" textLength="76.5396499633789" style="font-family: Arial, Helvetica Neue, Helvetica, sans-serif;">Maimiti</tspan></text></g></g><g width="224.667" height="75.5" transform="scale(1,1) translate(906.167,681.583)"><g stroke="#ECF1D9" stroke-opacity="1" stroke-width="1" stroke-dasharray="none" width="224.667" height="75.5" transform="scale(1,1) translate(0,0)" fill="#ECF1D9" fill-opacity="1"><rect width="224.667" height="75.5"/></g><g width="219.66666666666666" height="70.5" transform="scale(1,1) translate(2.5,2.5)"><text width="219.66666666666666" height="24.999998092651367" transform="scale(1,1) translate(0,22.750000953674316)" xml:space="preserve"><tspan xml:space="preserve" text-rendering="optimizeSpeed" font-size="22.22222222222222" font-weight="bold" font-style="normal" text-decoration="none" fill="#333333" opacity="1" x="28.33" text-anchor="start" y="20.313" textLength="163.006103515625" style="font-family: Arial, Helvetica Neue, Helvetica, sans-serif;">Royal Academy</tspan></text></g></g><g width="56.5" height="90.167" transform="scale(1,1) translate(849.667,173.667)"><g fill="#545454" stroke="#545454" stroke-opacity="1" transform="scale(1,1) translate(0,0)"><path fill="none" stroke-width="1" stroke-dasharray="none" d="M36,0 L36,90.167 M36,45.083 L0,45.083 M36,45.083 L36,45.083 M36,0 L56.5,0 M36,90.167 L56.5,90.167"/><g><g stroke-dasharray="none"><path d="M33,87.167L39,87.167L39,93.167L33,93.167z" stroke-width="0" fill="none"/></g></g></g></g><g width="20" height="0" transform="scale(1,1) translate(1130.833,263.833)"><g fill="#545454" stroke="#545454" stroke-opacity="1" transform="scale(1,1) translate(0,0)"><path fill="none" stroke-width="1" stroke-dasharray="none" d="M0,0"/></g></g><g width="224.667" height="74.167" transform="scale(1,1) translate(906.167,226.75)"><g stroke="#CFE9F7" stroke-opacity="1" stroke-width="1" stroke-dasharray="none" width="224.667" height="74.167" transform="scale(1,1) translate(0,0)" fill="#CFE9F7" fill-opacity="1"><rect width="224.667" height="74.167"/></g><g width="219.66666666666666" height="69.16666666666666" transform="scale(1,1) translate(2.5,2.5)"><text width="219.66666666666666" height="24.999998092651367" transform="scale(1,1) translate(0,22.083334287007645)" xml:space="preserve"><tspan xml:space="preserve" text-rendering="optimizeSpeed" font-size="22.22222222222222" font-weight="bold" font-style="normal" text-decoration="none" fill="#333333" opacity="1" x="30.023" text-anchor="start" y="20.313" textLength="159.62124633789062" style="font-family: Arial, Helvetica Neue, Helvetica, sans-serif;">Mariah's Storm</tspan></text></g></g><g width="224.667" height="74.167" transform="scale(1,1) translate(906.167,136.583)"><g stroke="#ECF1D9" stroke-opacity="1" stroke-width="1" stroke-dasharray="none" width="224.667" height="74.167" transform="scale(1,1) translate(0,0)" fill="#ECF1D9" fill-opacity="1"><rect width="224.667" height="74.167"/></g><g width="219.66666666666666" height="69.16666666666666" transform="scale(1,1) translate(2.5,2.5)"><text width="219.66666666666666" height="24.999998092651367" transform="scale(1,1) translate(0,22.083334287007645)" xml:space="preserve"><tspan xml:space="preserve" text-rendering="optimizeSpeed" font-size="22.22222222222222" font-weight="bold" font-style="normal" text-decoration="none" fill="#333333" opacity="1" x="56.749" text-anchor="start" y="20.313" textLength="106.16822814941406" style="font-family: Arial, Helvetica Neue, Helvetica, sans-serif;">Storm Cat</tspan></text></g></g><g width="56.5" height="90.833" transform="scale(1,1) translate(849.667,537.667)"><g fill="#545454" stroke="#545454" stroke-opacity="1" transform="scale(1,1) translate(0,0)"><path fill="none" stroke-width="1" stroke-dasharray="none" d="M36,0 L36,90.833 M36,45.417 L0,45.417 M36,45.417 L36,45.417 M36,0 L56.5,0 M36,90.833 L56.5,90.833"/><g><g stroke-dasharray="none"><path d="M33,87.833L39,87.833L39,93.833L33,93.833z" stroke-width="0" fill="none"/></g></g></g></g><g width="20" height="0" transform="scale(1,1) translate(1130.833,628.5)"><g fill="#545454" stroke="#545454" stroke-opacity="1" transform="scale(1,1) translate(0,0)"><path fill="none" stroke-width="1" stroke-dasharray="none" d="M0,0"/></g></g><g width="224.667" height="74.167" transform="scale(1,1) translate(906.167,591.417)"><g stroke="#CFE9F7" stroke-opacity="1" stroke-width="1" stroke-dasharray="none" width="224.667" height="74.167" transform="scale(1,1) translate(0,0)" fill="#CFE9F7" fill-opacity="1"><rect width="224.667" height="74.167"/></g><g width="219.66666666666666" height="69.16666666666666" transform="scale(1,1) translate(2.5,2.5)"><text width="219.66666666666666" height="24.999998092651367" transform="scale(1,1) translate(0,22.083334287007645)" xml:space="preserve"><tspan xml:space="preserve" text-rendering="optimizeSpeed" font-size="22.22222222222222" font-weight="bold" font-style="normal" text-decoration="none" fill="#333333" opacity="1" x="28.336" text-anchor="start" y="20.313" textLength="162.99525451660156" style="font-family: Arial, Helvetica Neue, Helvetica, sans-serif;">Great Selection</tspan></text></g></g><g width="224.667" height="75.5" transform="scale(1,1) translate(906.167,499.917)"><g stroke="#ECF1D9" stroke-opacity="1" stroke-width="1" stroke-dasharray="none" width="224.667" height="75.5" transform="scale(1,1) translate(0,0)" fill="#ECF1D9" fill-opacity="1"><rect width="224.667" height="75.5"/></g><g width="219.66666666666666" height="70.5" transform="scale(1,1) translate(2.5,2.5)"><text width="219.66666666666666" height="24.999998092651367" transform="scale(1,1) translate(0,22.750000953674316)" xml:space="preserve"><tspan xml:space="preserve" text-rendering="optimizeSpeed" font-size="22.22222222222222" font-weight="bold" font-style="normal" text-decoration="none" fill="#333333" opacity="1" x="26.481" text-anchor="start" y="20.313" textLength="166.70562744140625" style="font-family: Arial, Helvetica Neue, Helvetica, sans-serif;">Danehill Dancer</tspan></text></g></g><g width="56.5" height="91.5" transform="scale(1,1) translate(849.667,354.667)"><g fill="#545454" stroke="#545454" stroke-opacity="1" transform="scale(1,1) translate(0,0)"><path fill="none" stroke-width="1" stroke-dasharray="none" d="M36,0 L36,91.5 M36,45.75 L0,45.75 M36,45.75 L36,45.75 M36,0 L56.5,0 M36,91.5 L56.5,91.5"/><g><g stroke-dasharray="none"><path d="M33,88.5L39,88.5L39,94.5L33,94.5z" stroke-width="0" fill="none"/></g></g></g></g><g width="20" height="0" transform="scale(1,1) translate(1130.833,446.167)"><g fill="#545454" stroke="#545454" stroke-opacity="1" transform="scale(1,1) translate(0,0)"><path fill="none" stroke-width="1" stroke-dasharray="none" d="M0,0"/></g></g><g width="224.667" height="75.5" transform="scale(1,1) translate(906.167,408.417)"><g stroke="#CFE9F7" stroke-opacity="1" stroke-width="1" stroke-dasharray="none" width="224.667" height="75.5" transform="scale(1,1) translate(0,0)" fill="#CFE9F7" fill-opacity="1"><rect width="224.667" height="75.5"/></g><g width="219.66666666666666" height="70.5" transform="scale(1,1) translate(2.5,2.5)"><text width="219.66666666666666" height="24.999998092651367" transform="scale(1,1) translate(0,22.750000953674316)" xml:space="preserve"><tspan xml:space="preserve" text-rendering="optimizeSpeed" font-size="22.22222222222222" font-weight="bold" font-style="normal" text-decoration="none" fill="#333333" opacity="1" x="29.578" text-anchor="start" y="20.313" textLength="160.51084899902344" style="font-family: Arial, Helvetica Neue, Helvetica, sans-serif;">Dancing Rocks</tspan></text></g></g><g width="224.667" height="75.5" transform="scale(1,1) translate(906.167,316.917)"><g stroke="#ECF1D9" stroke-opacity="1" stroke-width="1" stroke-dasharray="none" width="224.667" height="75.5" transform="scale(1,1) translate(0,0)" fill="#ECF1D9" fill-opacity="1"><rect width="224.667" height="75.5"/></g><g width="219.66666666666666" height="70.5" transform="scale(1,1) translate(2.5,2.5)"><text width="219.66666666666666" height="24.999998092651367" transform="scale(1,1) translate(0,22.750000953674316)" xml:space="preserve"><tspan xml:space="preserve" text-rendering="optimizeSpeed" font-size="22.22222222222222" font-weight="bold" font-style="normal" text-decoration="none" fill="#333333" opacity="1" x="28.976" text-anchor="start" y="20.313" textLength="161.715087890625" style="font-family: Arial, Helvetica Neue, Helvetica, sans-serif;">Rainbow Quest</tspan></text></g></g></g></svg>